<svg width="564" height="168" viewBox="0 0 564 168" fill="none" xmlns="http://www.w3.org/2000/svg">
<path d="M22 2H542C553.08 2 562 10.92 562 22V146C562 157.08 553.08 166 542 166H22C10.92 166 2 157.08 2 146V22C2 10.92 10.92 2 22 2Z" fill="black" stroke="#A6A6A6" stroke-width="4"/>
<path d="M199.263 45.4559V38.7742H193.764V36.0082H202.595V46.6889C201.296 47.6109 199.863 48.3107 198.296 48.7884C196.73 49.2549 195.058 49.4882 193.281 49.4882C189.393 49.4882 186.349 48.3552 184.15 46.0891C181.961 43.8118 180.867 40.6459 180.867 36.5914C180.867 32.5257 181.961 29.3598 184.15 27.0937C186.349 24.8165 189.393 23.6779 193.281 23.6779C194.903 23.6779 196.441 23.8778 197.896 24.2777C199.363 24.6776 200.712 25.2664 201.945 26.0439V29.6264C200.701 28.5711 199.379 27.7769 197.98 27.2437C196.58 26.7105 195.108 26.4438 193.564 26.4438C190.52 26.4438 188.232 27.2936 186.699 28.9932C185.177 30.6928 184.416 33.2255 184.416 36.5914C184.416 39.9461 185.177 42.4733 186.699 44.1729C188.232 45.8724 190.52 46.7222 193.564 46.7222C194.753 46.7222 195.814 46.6223 196.747 46.4223C197.68 46.2112 198.518 45.8891 199.263 45.4559Z" fill="white"/>
<path d="M208.744 24.1277H224.473V26.9604H212.11V34.3253H223.957V37.1579H212.11V46.1724H224.773V49.005H208.744V24.1277Z" fill="white"/>
<path d="M226.856 24.1277H247.901V26.9604H239.07V49.005H235.687V26.9604H226.856V24.1277Z" fill="white"/>
<path d="M261.997 24.1277H265.363V49.005H261.997V24.1277Z" fill="white"/>
<path d="M268.612 24.1277H289.657V26.9604H280.826V49.005H277.444V26.9604H268.612V24.1277Z" fill="white"/>
<path d="M313.851 26.4105C311.408 26.4105 309.464 27.3214 308.019 29.1432C306.586 30.965 305.87 33.4477 305.87 36.5914C305.87 39.7239 306.586 42.2011 308.019 44.0229C309.464 45.8447 311.408 46.7556 313.851 46.7556C316.295 46.7556 318.228 45.8447 319.65 44.0229C321.083 42.2011 321.799 39.7239 321.799 36.5914C321.799 33.4477 321.083 30.965 319.65 29.1432C318.228 27.3214 316.295 26.4105 313.851 26.4105ZM313.851 23.6779C317.339 23.6779 320.128 24.8498 322.216 27.1937C324.304 29.5264 325.349 32.659 325.349 36.5914C325.349 40.5126 324.304 43.6452 322.216 45.9891C320.128 48.3218 317.339 49.4882 313.851 49.4882C310.352 49.4882 307.553 48.3218 305.453 45.9891C303.365 43.6563 302.321 40.5237 302.321 36.5914C302.321 32.659 303.365 29.5264 305.453 27.1937C307.553 24.8498 310.352 23.6779 313.851 23.6779Z" fill="white"/>
<path d="M330.614 24.1277H335.146L346.177 44.9393V24.1277H349.443V49.005H344.91L333.88 28.1934V49.005H330.614V24.1277Z" fill="white"/>
<path d="M180.811 127.881V135.999H208.782V127.881L201.546 126.49V107.935H225.203V97.498H201.546V78.897H223.579L224.182 86.9683H234.573V68.46H180.811V76.624L188.001 78.0156V126.49L180.811 127.881Z" fill="white"/>
<path d="M269.131 112.342V101.905H242.969V112.342H269.131Z" fill="white"/>
<path d="M307.678 68.46H277.295V76.624L284.485 78.0156V126.49L277.295 127.881V135.999H307.678C324.192 135.999 336.113 124.402 336.113 107.842V96.6631C336.113 80.1494 324.192 68.46 307.678 68.46ZM298.03 78.897H306.983C316.677 78.897 322.522 86.1333 322.522 96.5703V107.842C322.522 118.418 316.677 125.608 306.983 125.608H298.03V78.897Z" fill="white"/>
<path d="M344.092 127.881V135.999H370.625V127.881L364.131 126.49V101.905C365.615 99.0752 368.027 97.5908 372.017 97.7764L378.696 98.1011L380.134 85.623C378.836 85.1592 376.702 84.8809 374.8 84.8809C369.929 84.8809 366.172 87.9424 363.806 93.1377L363.713 92.0244L363.203 85.8086H343.396V93.9727L350.586 95.3643V126.49L344.092 127.881Z" fill="white"/>
<path d="M383.242 110.44V111.414C383.242 126.49 392.102 136.973 406.992 136.973C421.697 136.973 430.603 126.49 430.603 111.414V110.44C430.603 95.4106 421.743 84.8809 406.9 84.8809C392.102 84.8809 383.242 95.457 383.242 110.44ZM396.787 111.414V110.44C396.787 101.534 399.849 95.3179 406.9 95.3179C413.95 95.3179 417.105 101.534 417.105 110.44V111.414C417.105 120.506 413.997 126.583 406.992 126.583C399.802 126.583 396.787 120.552 396.787 111.414Z" fill="white"/>
<path d="M456.162 75.186V63.6357H442.153V75.186H456.162ZM436.077 127.881V135.999H462.656V127.881L456.162 126.49V85.8086H435.381V93.9727L442.617 95.3643V126.49L436.077 127.881Z" fill="white"/>
<path d="M499.766 129.876L500.786 135.999H519.016V127.881L512.522 126.49V63.6357H491.741V71.7998L498.977 73.1914V91.1895C495.962 87.1538 491.926 84.8809 486.917 84.8809C474.485 84.8809 467.295 95.5034 467.295 111.321V112.295C467.295 127.139 474.439 136.973 486.824 136.973C492.344 136.973 496.611 134.515 499.766 129.876ZM480.84 112.295V111.321C480.84 101.858 483.716 95.4106 490.349 95.4106C494.246 95.4106 497.122 97.2661 498.977 100.467V121.758C497.122 124.773 494.199 126.443 490.256 126.443C483.577 126.443 480.84 121.062 480.84 112.295Z" fill="white"/>
<path fill-rule="evenodd" clip-rule="evenodd" d="M146.345 25.7908L135.161 40.2645Z" fill="#8AB000"/>
<path d="M146.345 25.7908L135.161 40.2645" stroke="#769616" stroke-width="6.57895" stroke-linecap="round"/>
<path fill-rule="evenodd" clip-rule="evenodd" d="M146.287 22.4961C147.479 22.525 148.29 22.9908 148.866 23.675C143.532 30.0145 142.634 31.0224 135.353 40.0461C132.668 43.5197 129.874 41.7251 132.558 38.254L143.742 23.7804C144.041 23.3873 144.426 23.0672 144.867 22.8443C145.307 22.6214 145.793 22.504 146.287 22.4961Z" fill="white" fill-opacity="0.298039"/>
<path fill-rule="evenodd" clip-rule="evenodd" d="M148.89 23.7067C149.361 24.2823 149.624 25.001 149.634 25.7452C149.645 26.4895 149.403 27.2153 148.947 27.804L137.763 42.2777C135.079 45.7487 134.737 40.6644 134.737 40.6644C134.737 40.6644 144.566 28.7935 148.89 23.7067Z" fill="#263238" fill-opacity="0.2"/>
<path fill-rule="evenodd" clip-rule="evenodd" d="M147.005 23.1119C148.158 23.1119 149.532 23.4856 149.174 25.2145C148.903 26.5329 136.911 41.1986 136.911 41.1986C134.226 44.6723 130.347 42.9803 133.032 39.5092L144.174 25.1066C144.858 24.3434 145.774 23.1487 147.005 23.1119Z" fill="#8AB000"/>
<path fill-rule="evenodd" clip-rule="evenodd" d="M33.6552 25.7908L44.8394 40.2645Z" fill="#8AB000"/>
<path d="M33.6552 25.7908L44.8394 40.2645" stroke="#769616" stroke-width="6.57895" stroke-linecap="round"/>
<path fill-rule="evenodd" clip-rule="evenodd" d="M33.7131 22.4961C32.521 22.525 31.7104 22.9908 31.1341 23.675C36.4684 30.0145 37.3657 31.0224 44.6473 40.0461C47.3316 43.5197 50.1263 41.7251 47.4421 38.254L36.2578 23.7804C35.9587 23.3873 35.5743 23.0672 35.1335 22.8443C34.6927 22.6214 34.207 22.504 33.7131 22.4961Z" fill="white" fill-opacity="0.298039"/>
<path fill-rule="evenodd" clip-rule="evenodd" d="M31.1104 23.7067C30.6386 24.2823 30.376 25.001 30.3655 25.7452C30.355 26.4895 30.5972 27.2153 31.0525 27.804L42.2368 42.2777C44.921 45.7487 45.2631 40.6644 45.2631 40.6644C45.2631 40.6644 35.4341 28.7935 31.1104 23.7067Z" fill="#263238" fill-opacity="0.2"/>
<path fill-rule="evenodd" clip-rule="evenodd" d="M32.9946 23.1119C31.842 23.1119 30.4683 23.4856 30.8262 25.2145C31.0973 26.5329 43.0894 41.1986 43.0894 41.1986C45.7736 44.6723 49.6526 42.9803 46.9684 39.5092L35.8262 25.1066C35.142 24.3434 34.2262 23.1487 32.9946 23.1119Z" fill="#8AB000"/>
<path d="M47.895 34.9959H132.106C136.48 34.9959 140.001 38.517 140.001 42.8906V61.1012C140.001 65.4749 136.48 68.9959 132.106 68.9959H47.895C43.5213 68.9959 40.0002 65.4749 40.0002 61.1012V42.8906C40.0002 38.517 43.5213 34.9959 47.895 34.9959Z" fill="#AEEA00"/>
<path d="M47.895 42.6776H132.106C136.48 42.6776 140.001 46.1986 140.001 50.5723V61.0985C140.001 65.4722 136.48 68.9933 132.106 68.9933H47.895C43.5213 68.9933 40.0002 65.4722 40.0002 61.0985V50.5723C40.0002 46.1986 43.5213 42.6776 47.895 42.6776Z" fill="#263238" fill-opacity="0.2"/>
<path d="M47.895 35.0013H132.106C136.48 35.0013 140.001 38.5223 140.001 42.896V53.4223C140.001 57.7959 136.48 61.317 132.106 61.317H47.895C43.5213 61.317 40.0002 57.7959 40.0002 53.4223V42.896C40.0002 38.5223 43.5213 35.0013 47.895 35.0013Z" fill="white" fill-opacity="0.298039"/>
<path d="M47.895 37.9962H132.106C136.48 37.9962 140.001 40.8788 140.001 44.4593V59.5355C140.001 63.1161 136.48 65.9987 132.106 65.9987H47.895C43.5213 65.9987 40.0002 63.1161 40.0002 59.5355V44.4593C40.0002 40.8788 43.5213 37.9962 47.895 37.9962Z" fill="#AEEA00"/>
<path d="M47.8947 71.9942H132.106C136.479 71.9942 140 75.5152 140 79.8889V132.099C140 136.473 136.479 139.994 132.106 139.994H47.8947C43.521 139.994 39.9999 136.473 39.9999 132.099V79.8889C39.9999 75.5152 43.521 71.9942 47.8947 71.9942Z" fill="#1976D2"/>
<path d="M47.8947 105.784H132.106C136.479 105.784 140 109.305 140 113.679V132.1C140 136.473 136.479 139.994 132.106 139.994H47.8947C43.521 139.994 39.9999 136.473 39.9999 132.1V113.679C39.9999 109.305 43.521 105.784 47.8947 105.784Z" fill="#263238" fill-opacity="0.2"/>
<path d="M47.8947 71.784H132.106C136.479 71.784 140 75.305 140 79.6787V98.0997C140 102.473 136.479 105.994 132.106 105.994H47.8947C43.521 105.994 39.9999 102.473 39.9999 98.0997V79.6787C39.9999 75.305 43.521 71.784 47.8947 71.784Z" fill="white" fill-opacity="0.2"/>
<path d="M47.8947 74.9942H132.106C136.479 74.9942 140 78.1842 140 82.1469V129.841C140 133.804 136.479 136.994 132.106 136.994H47.8947C43.521 136.994 39.9999 133.804 39.9999 129.841V82.1469C39.9999 78.1842 43.521 74.9942 47.8947 74.9942Z" fill="#1976D2"/>
<path d="M90.0002 89.6124C82.4212 89.6124 76.0001 94.8361 74.1238 101.849H82.5791C83.3162 100.529 84.3931 99.4305 85.698 98.667C87.0029 97.9035 88.4883 97.5031 90.0002 97.5071C91.1253 97.5001 92.2406 97.7166 93.2814 98.1439C94.3222 98.5713 95.2678 99.201 96.0634 99.9966C96.859 100.792 97.4887 101.738 97.916 102.779C98.3434 103.819 98.5598 104.935 98.5528 106.06C98.5598 107.185 98.3434 108.3 97.916 109.341C97.4887 110.382 96.859 111.327 96.0634 112.123C95.2678 112.919 94.3222 113.548 93.2814 113.976C92.2406 114.403 91.1253 114.619 90.0002 114.612C88.3845 114.62 86.8003 114.166 85.4342 113.304C84.068 112.441 82.977 111.206 82.2896 109.744H73.9896C75.679 117.023 82.2317 122.507 90.0002 122.507C99.037 122.507 106.448 115.097 106.448 106.06C106.448 97.0229 99.037 89.6124 90.0002 89.6124Z" fill="#0D47A1"/>
<path d="M115.132 106.06C115.132 112.725 112.484 119.117 107.771 123.83C103.058 128.543 96.6655 131.191 90.0002 131.191C83.3348 131.191 76.9425 128.543 72.2294 123.83C67.5163 119.117 64.8685 112.725 64.8685 106.06C64.8685 99.3944 67.5163 93.0021 72.2294 88.2891C76.9425 83.576 83.3348 80.9282 90.0002 80.9282C96.6655 80.9282 103.058 83.576 107.771 88.2891C112.484 93.0021 115.132 99.3944 115.132 106.06Z" stroke="#0D47A1" stroke-width="5" stroke-linecap="round"/>
<path d="M73.5527 52.4357C73.5527 55.1402 72.617 57.7339 70.9514 59.6463C69.2857 61.5587 67.0267 62.633 64.6711 62.633C62.3156 62.633 60.0565 61.5587 58.3909 59.6463C56.7252 57.7339 55.7895 55.1402 55.7895 52.4357C55.7895 49.7312 56.7252 47.1374 58.3909 45.225C60.0565 43.3127 62.3156 42.2383 64.6711 42.2383C67.0267 42.2383 69.2857 43.3127 70.9514 45.225C72.617 47.1374 73.5527 49.7312 73.5527 52.4357Z" fill="#263238" fill-opacity="0.2"/>
<path d="M73.5527 53.7515C73.5527 56.107 72.617 58.366 70.9514 60.0317C69.2857 61.6973 67.0267 62.633 64.6711 62.633C62.3156 62.633 60.0565 61.6973 58.3909 60.0317C56.7252 58.366 55.7895 56.107 55.7895 53.7515C55.7895 51.3959 56.7252 49.1369 58.3909 47.4713C60.0565 45.8057 62.3156 44.8699 64.6711 44.8699C67.0267 44.8699 69.2857 45.8057 70.9514 47.4713C72.617 49.1369 73.5527 51.3959 73.5527 53.7515Z" fill="white"/>
<path d="M124.869 52.4357C124.869 55.1402 123.933 57.7339 122.267 59.6463C120.602 61.5587 118.343 62.633 115.987 62.633C113.632 62.633 111.372 61.5587 109.707 59.6463C108.041 57.7339 107.105 55.1402 107.105 52.4357C107.105 49.7312 108.041 47.1374 109.707 45.225C111.372 43.3127 113.632 42.2383 115.987 42.2383C118.343 42.2383 120.602 43.3127 122.267 45.225C123.933 47.1374 124.869 49.7312 124.869 52.4357Z" fill="#263238" fill-opacity="0.2"/>
<path d="M124.869 53.7515C124.869 56.107 123.933 58.366 122.267 60.0317C120.602 61.6973 118.343 62.633 115.987 62.633C113.632 62.633 111.372 61.6973 109.707 60.0317C108.041 58.366 107.105 56.107 107.105 53.7515C107.105 51.3959 108.041 49.1369 109.707 47.4713C111.372 45.8057 113.632 44.8699 115.987 44.8699C118.343 44.8699 120.602 45.8057 122.267 47.4713C123.933 49.1369 124.869 51.3959 124.869 53.7515Z" fill="white"/>
<path fill-rule="evenodd" clip-rule="evenodd" d="M33.715 22.473C33.089 22.4565 32.4714 22.6191 31.9345 22.9415C31.3977 23.2639 30.9641 23.7329 30.6845 24.2932C30.405 24.8535 30.2912 25.482 30.3565 26.1048C30.4217 26.7276 30.6634 27.3188 31.053 27.809L40.527 40.07C40.1801 40.9715 40.0015 41.929 40 42.895V61.105C39.9976 62.1425 40.2002 63.1702 40.5961 64.1291C40.9921 65.088 41.5735 65.9593 42.3071 66.6929C43.0407 67.4265 43.912 68.008 44.8709 68.4039C45.8299 68.7998 46.8575 69.0024 47.895 69H132.105C133.142 69.0024 134.17 68.7998 135.129 68.404C136.088 68.0081 136.959 67.4268 137.693 66.6933C138.426 65.9598 139.008 65.0886 139.404 64.1298C139.8 63.171 140.002 62.1434 140 61.106V42.895C140 41.896 139.81 40.946 139.475 40.069L148.947 27.809C149.325 27.334 149.563 26.7639 149.637 26.1617C149.711 25.5595 149.617 24.9486 149.365 24.3966C149.113 23.8446 148.713 23.3729 148.21 23.0338C147.707 22.6947 147.12 22.5013 146.514 22.475C145.98 22.4519 145.449 22.5591 144.966 22.7874C144.483 23.0156 144.063 23.358 143.742 23.785L134.729 35.451C133.886 35.1536 132.999 35.0015 132.105 35.001H47.895C46.973 35.001 46.095 35.164 45.273 35.451L36.258 23.785C35.9603 23.3889 35.5769 23.0652 35.1366 22.8381C34.6963 22.6109 34.2103 22.4861 33.715 22.473ZM47.895 72C46.8575 71.9976 45.8299 72.2002 44.8709 72.5961C43.912 72.9921 43.0407 73.5735 42.3071 74.3071C41.5735 75.0407 40.9921 75.912 40.5961 76.8709C40.2002 77.8299 39.9976 78.8575 40 79.895V132.105C39.9976 133.142 40.2002 134.17 40.5961 135.129C40.9921 136.088 41.5735 136.959 42.3071 137.693C43.0407 138.427 43.912 139.008 44.8709 139.404C45.8299 139.8 46.8575 140.002 47.895 140H132.105C133.142 140.002 134.17 139.8 135.129 139.404C136.088 139.008 136.959 138.427 137.693 137.693C138.426 136.96 139.008 136.089 139.404 135.13C139.8 134.171 140.002 133.143 140 132.106V79.895C140.002 78.8575 139.8 77.8299 139.404 76.8709C139.008 75.912 138.427 75.0407 137.693 74.3071C136.959 73.5735 136.088 72.9921 135.129 72.5961C134.17 72.2002 133.142 71.9976 132.105 72H47.895Z" fill="url(#paint0_radial_2_49)"/>
<defs>
<radialGradient id="paint0_radial_2_49" cx="0" cy="0" r="1" gradientUnits="userSpaceOnUse" gradientTransform="translate(31.001 22.9997) rotate(90) scale(117 118)">
<stop stop-color="white" stop-opacity="0.0980392"/>
<stop offset="1" stop-color="white" stop-opacity="0"/>
</radialGradient>
</defs>
</svg>
