<svg width="111" height="40" viewBox="0 0 111 40" fill="none" xmlns="http://www.w3.org/2000/svg">
<g clip-path="url(#clip0_9015_8085)">
<rect x="0.5" y="0.5" width="110" height="39" rx="3.5" fill="#1A1C20" stroke="#393E45"/>
<path d="M45.7977 27.3647C47.6085 26.8979 48.8019 25.5012 48.8019 23.6753C48.8019 21.4165 47.0061 19.8278 44.4875 19.8278H40V31.9841H42.0706V27.5153H43.5388L46.7501 31.9841H49.1822L45.7977 27.361V27.3647ZM44.4875 21.7252C45.7826 21.7252 46.6786 22.5195 46.6786 23.6753C46.6786 24.8311 45.7826 25.6254 44.4875 25.6254H42.0706V21.729H44.4875V21.7252Z" fill="white"/>
<path d="M53.8447 32.1567C54.9327 32.1567 55.9342 31.5882 56.5026 30.6395L56.8979 31.9835H58.3812V23.0159H56.3972V28.2075C56.3972 29.4837 55.5502 30.3797 54.3944 30.3797C53.2386 30.3797 52.4631 29.4837 52.4631 28.2075V23.0159H50.4791V28.4296C50.4791 30.5868 51.9285 32.1567 53.8447 32.1567Z" fill="white"/>
<path d="M64.7154 32.1563C67.0119 32.1563 68.9093 30.8462 68.9093 28.6739C68.9093 26.2419 66.9253 25.5342 65.2161 24.9469C63.8872 24.4989 62.7314 24.0847 62.7314 22.9967C62.7314 22.048 63.6123 21.5473 64.6476 21.5473C65.7356 21.5473 66.5112 22.1158 66.9441 23.0833L68.9131 22.7558C68.2919 20.8584 66.722 19.6499 64.5799 19.6499C62.4378 19.6499 60.6119 20.9261 60.6119 23.0984C60.6119 25.5492 62.5959 26.2193 64.3051 26.7878C65.6152 27.217 66.7898 27.6311 66.7898 28.7379C66.7898 29.7055 65.9088 30.2551 64.7342 30.2551C63.3865 30.2551 62.6636 29.6189 62.0236 28.4631L60.0208 28.8095C60.6081 30.8612 62.4716 32.1563 64.7154 32.1563Z" fill="white"/>
<path d="M74.3078 30.2597C73.6339 30.2597 73.3064 29.9322 73.3064 29.2583V24.7406H75.9831V23.0164H73.3064V20.43H71.8231L71.3224 23.0164H69.8541V24.7406H71.3224V29.2583C71.3224 31.0164 72.3388 31.984 74.3078 31.984H75.9831L76.1563 30.2597H74.3078Z" fill="white"/>
<path d="M81.8258 32.157C84.638 32.157 86.622 30.2257 86.622 27.5C86.622 24.7744 84.638 22.8431 81.8258 22.8431C79.0135 22.8431 77.0295 24.7744 77.0295 27.5C77.0295 30.2257 79.0135 32.157 81.8258 32.157ZM81.8258 30.3462C80.2032 30.3462 79.1001 29.1904 79.1001 27.5C79.1001 25.8097 80.2032 24.6539 81.8258 24.6539C83.4484 24.6539 84.5514 25.8097 84.5514 27.5C84.5514 29.1904 83.4484 30.3462 81.8258 30.3462Z" fill="white"/>
<path d="M90.3341 31.9835V26.6903C90.3341 25.5534 90.8875 24.9134 92.096 24.9134H93.2367L93.0635 23.0159H92.6833C91.6292 23.0159 90.8197 23.3096 90.2136 24.311L89.8334 23.0159H88.3501V31.9835H90.3341Z" fill="white"/>
<path d="M103 27.3976C103 24.8113 101.069 22.8461 98.3393 22.8461C95.6099 22.8461 93.6785 24.7962 93.6785 27.5031C93.6785 30.2099 95.6099 32.16 98.3393 32.16C100.203 32.16 101.965 31.2791 102.635 29.5736L100.771 29.2612C100.338 29.9012 99.5101 30.3492 98.4597 30.3492C96.9426 30.3492 95.9411 29.4193 95.7491 28.0376H102.962C102.981 27.8494 102.996 27.6423 102.996 27.3976M98.3355 24.5703C99.5779 24.5703 100.512 25.3647 100.839 26.4828H95.8696C96.1971 25.327 97.1308 24.5703 98.3393 24.5703" fill="white"/>
<path d="M9.68808 30.3141C11.3762 32 14.0898 32 19.5209 32H20.4791C25.9102 32 28.6238 32 30.3119 30.3141C32 28.6282 32 25.912 32 20.4796V19.5204C32 14.088 32 11.3718 30.3119 9.68592C28.6238 8 25.9064 8 20.4791 8H19.5209C14.0898 8 11.3724 8 9.68808 9.68592C8 11.3756 8 14.0918 8 19.5204V20.4796C8 25.912 8 28.6282 9.68808 30.3141Z" fill="#0077FF"/>
<path fill-rule="evenodd" clip-rule="evenodd" d="M26.5283 23.9528L24.9076 23.5482C24.713 23.492 24.5745 23.3159 24.567 23.1136L24.3649 17.1454C24.305 16.3549 23.7211 15.7255 23.1072 15.5419C23.0735 15.5307 23.0361 15.5419 23.0174 15.5756C22.9949 15.6056 23.0062 15.6468 23.0324 15.6693C23.1821 15.7854 23.6013 16.1676 23.6013 16.827V24.6309C23.6013 25.3839 22.8864 25.9384 22.1528 25.7548L20.5058 25.3427C20.3224 25.279 20.1952 25.1104 20.1914 24.9119L19.9893 18.9437C19.9294 18.1532 19.3455 17.5238 18.7317 17.3402C18.698 17.329 18.6606 17.3402 18.6418 17.3739C18.6194 17.4039 18.6306 17.4451 18.6568 17.4676C18.8065 17.5837 19.2257 17.9659 19.2257 18.6253V25.1292V26.4292C19.2257 27.1822 18.5146 27.7367 17.781 27.5531L13.1322 26.3917C12.4846 26.2306 12.0317 25.6499 12.0317 24.9868V17.1716C12.0317 16.4186 12.7429 15.8641 13.4765 16.0477L16.4073 16.7783V15.3696C16.4073 14.6165 17.1184 14.062 17.8521 14.2456L20.7828 14.9762V13.5675C20.7828 12.8145 21.494 12.26 22.2276 12.4436L26.8764 13.605C27.5239 13.7661 27.9768 14.3468 27.9768 15.0099V22.8251C27.9768 23.5781 27.2657 24.1326 26.532 23.949" fill="white"/>
<path d="M42.8292 14.0861C42.2609 14.0861 41.75 13.9541 41.2965 13.69C40.8431 13.4202 40.4872 13.0471 40.2288 12.5707C39.9763 12.0942 39.85 11.5575 39.85 10.9605C39.85 10.3635 39.9763 9.82964 40.2288 9.35893C40.4872 8.88248 40.8402 8.51223 41.2879 8.24817C41.7414 7.97838 42.2523 7.84348 42.8206 7.84348C43.4348 7.84348 43.9802 7.99847 44.4566 8.30845C44.9388 8.61269 45.2832 9.02599 45.4899 9.54837L44.6116 9.68614C44.4509 9.36467 44.2127 9.11497 43.8969 8.93702C43.587 8.75333 43.2368 8.66148 42.8464 8.66148C42.4446 8.66148 42.0858 8.75907 41.7701 8.95424C41.4601 9.14941 41.2162 9.42208 41.0382 9.77224C40.866 10.1167 40.7799 10.5127 40.7799 10.9605C40.7799 11.414 40.866 11.8158 41.0382 12.166C41.2162 12.5104 41.463 12.7802 41.7787 12.9754C42.0945 13.1705 42.4561 13.2681 42.8637 13.2681C43.2655 13.2681 43.6214 13.1763 43.9314 12.9926C44.2471 12.8032 44.4882 12.5391 44.6547 12.2004L45.5329 12.3382C45.3148 12.872 44.9618 13.2968 44.4738 13.6125C43.9859 13.9283 43.4377 14.0861 42.8292 14.0861Z" fill="white"/>
<path d="M50.1182 14H49.0074L47.3628 12.1574H47.0959V14H46.2521V9.54837H47.0959V11.348H47.3542L48.9299 9.54837H49.946L48.0344 11.701L50.1182 14Z" fill="white"/>
<path d="M52.211 9.46226C52.762 9.46226 53.1954 9.64308 53.5112 10.0047C53.8326 10.3606 53.9933 10.86 53.9933 11.503V14H53.3906L53.1926 13.3026C53.0491 13.5264 52.8568 13.713 52.6157 13.8623C52.3746 14.0115 52.0847 14.0861 51.746 14.0861C51.4475 14.0861 51.1806 14.0259 50.9452 13.9053C50.7099 13.7848 50.5262 13.6183 50.3941 13.4059C50.2621 13.1878 50.1961 12.9438 50.1961 12.674C50.1961 12.2549 50.3626 11.9191 50.6955 11.6666C51.0284 11.414 51.5106 11.2877 52.1421 11.2877H53.1495C53.1265 10.9375 53.029 10.6677 52.8568 10.4783C52.6845 10.2831 52.4549 10.1855 52.1679 10.1855C51.9498 10.1855 51.7575 10.2372 51.591 10.3405C51.4245 10.4439 51.2982 10.5788 51.2121 10.7452L50.4286 10.6161C50.5434 10.2602 50.7644 9.97889 51.0916 9.77224C51.4188 9.56559 51.7919 9.46226 52.211 9.46226ZM51.9268 13.3715C52.2885 13.3715 52.5812 13.2538 52.8051 13.0184C53.0347 12.7773 53.1495 12.4473 53.1495 12.0282V11.9765H52.1679C51.4217 11.9765 51.0485 12.2004 51.0485 12.6482C51.0485 12.8663 51.1289 13.0414 51.2896 13.1734C51.4504 13.3054 51.6628 13.3715 51.9268 13.3715Z" fill="white"/>
<path d="M57.3862 12.3812C57.2485 12.4444 57.0849 12.4932 56.8954 12.5276C56.706 12.5621 56.5194 12.5793 56.3358 12.5793C55.8019 12.5793 55.3915 12.43 55.1044 12.1315C54.8174 11.833 54.6739 11.4111 54.6739 10.8658V9.54837H55.5177V10.8658C55.5177 11.503 55.8249 11.8216 56.4391 11.8216C56.8122 11.8216 57.1279 11.7555 57.3862 11.6235V9.54837H58.2301V14H57.3862V12.3812Z" fill="white"/>
<path d="M61.0613 9.46226C61.6124 9.46226 62.0458 9.64308 62.3615 10.0047C62.683 10.3606 62.8437 10.86 62.8437 11.503V14H62.241L62.0429 13.3026C61.8994 13.5264 61.7071 13.713 61.466 13.8623C61.2249 14.0115 60.935 14.0861 60.5964 14.0861C60.2979 14.0861 60.0309 14.0259 59.7956 13.9053C59.5602 13.7848 59.3765 13.6183 59.2445 13.4059C59.1125 13.1878 59.0465 12.9438 59.0465 12.674C59.0465 12.2549 59.2129 11.9191 59.5459 11.6666C59.8788 11.414 60.361 11.2877 60.9924 11.2877H61.9999C61.9769 10.9375 61.8793 10.6677 61.7071 10.4783C61.5349 10.2831 61.3053 10.1855 61.0183 10.1855C60.8001 10.1855 60.6078 10.2372 60.4414 10.3405C60.2749 10.4439 60.1486 10.5788 60.0625 10.7452L59.2789 10.6161C59.3938 10.2602 59.6148 9.97889 59.942 9.77224C60.2692 9.56559 60.6423 9.46226 61.0613 9.46226ZM60.7772 13.3715C61.1388 13.3715 61.4316 13.2538 61.6555 13.0184C61.8851 12.7773 61.9999 12.4473 61.9999 12.0282V11.9765H61.0183C60.272 11.9765 59.8989 12.2004 59.8989 12.6482C59.8989 12.8663 59.9793 13.0414 60.14 13.1734C60.3007 13.3054 60.5131 13.3715 60.7772 13.3715Z" fill="white"/>
<path d="M65.1172 14H63.8687V9.54837H64.6867V13.0529H64.8159L66.6155 9.54837H67.864V14H67.046V10.5041H66.9168L65.1172 14ZM65.875 8.97146C65.5018 8.97146 65.189 8.87387 64.9364 8.6787C64.6896 8.47779 64.5432 8.17929 64.4973 7.7832H65.1861C65.2148 7.96689 65.2866 8.10753 65.4014 8.20512C65.5219 8.29697 65.6798 8.34289 65.875 8.34289C66.0701 8.34289 66.2251 8.29697 66.3399 8.20512C66.4605 8.10753 66.5322 7.96689 66.5552 7.7832H67.2527C67.201 8.17929 67.0489 8.47779 66.7963 8.6787C66.5495 8.87387 66.2423 8.97146 65.875 8.97146Z" fill="white"/>
<path d="M70.8833 14H70.0395V10.3233H68.4982V9.54837H72.4246V10.3233H70.8833V14Z" fill="white"/>
<path d="M77.2093 11.7441C77.2093 11.8589 77.2065 11.9478 77.2007 12.011H73.524C73.5699 12.4071 73.7249 12.7228 73.989 12.9581C74.2531 13.1935 74.5889 13.3112 74.9964 13.3112C75.2777 13.3112 75.5274 13.2566 75.7455 13.1476C75.9694 13.0328 76.1388 12.8835 76.2536 12.6998L77.0457 12.829C76.8735 13.2308 76.5951 13.5408 76.2105 13.7589C75.8317 13.9771 75.4097 14.0861 74.9448 14.0861C74.5028 14.0861 74.1067 13.9885 73.7565 13.7934C73.4063 13.5925 73.1337 13.3169 72.9385 12.9668C72.7433 12.6166 72.6457 12.2205 72.6457 11.7785C72.6457 11.3308 72.7433 10.9318 72.9385 10.5816C73.1337 10.2315 73.4035 9.9588 73.7479 9.76363C74.0923 9.56272 74.4855 9.46226 74.9275 9.46226C75.3638 9.46226 75.7542 9.56272 76.0986 9.76363C76.4487 9.9588 76.7214 10.2315 76.9166 10.5816C77.1118 10.9261 77.2093 11.3135 77.2093 11.7441ZM74.9275 10.2114C74.5889 10.2114 74.2961 10.3118 74.0493 10.5127C73.8082 10.7137 73.6474 10.9835 73.5671 11.3221H76.288C76.2134 10.9892 76.0527 10.7223 75.8058 10.5214C75.5647 10.3147 75.272 10.2114 74.9275 10.2114Z" fill="white"/>
<path d="M81.0017 14H79.7532V9.54837H80.5712V13.0529H80.7003L82.4999 9.54837H83.7484V14H82.9304V10.5041H82.8013L81.0017 14Z" fill="white"/>
<path d="M87.25 11.7268C87.4853 11.7957 87.6805 11.922 87.8355 12.1057C87.9905 12.2837 88.068 12.5047 88.068 12.7687C88.068 13.0155 87.9962 13.2394 87.8527 13.4403C87.7092 13.6355 87.5026 13.7934 87.2328 13.9139C86.9687 14.0287 86.6616 14.0861 86.3114 14.0861C85.8407 14.0861 85.436 13.9771 85.0973 13.7589C84.7587 13.5351 84.5348 13.2366 84.4257 12.8634L85.2093 12.7343C85.3987 13.1476 85.7632 13.3542 86.3028 13.3542C86.6013 13.3542 86.8281 13.2997 86.9831 13.1906C87.1438 13.0758 87.2241 12.918 87.2241 12.717C87.2241 12.5391 87.1495 12.3956 87.0003 12.2865C86.8568 12.1775 86.6243 12.1229 86.3028 12.1229H85.7173V11.3824H86.3028C86.5784 11.3824 86.7879 11.3308 86.9314 11.2274C87.0806 11.1241 87.1553 10.9863 87.1553 10.8141C87.1553 10.6304 87.0749 10.4812 86.9142 10.3664C86.7592 10.2516 86.5669 10.1942 86.3373 10.1942C86.1134 10.1942 85.9125 10.2487 85.7345 10.3578C85.5566 10.4668 85.4217 10.6161 85.3298 10.8055L84.5463 10.6677C84.6783 10.2831 84.905 9.9875 85.2265 9.78085C85.5537 9.56846 85.9326 9.46226 86.3631 9.46226C86.6731 9.46226 86.9515 9.51679 87.1983 9.62586C87.4509 9.73493 87.6461 9.88705 87.7838 10.0822C87.9273 10.2774 87.9991 10.4955 87.9991 10.7366C87.9991 10.9835 87.9302 11.193 87.7924 11.3652C87.6547 11.5374 87.4739 11.658 87.25 11.7268Z" fill="white"/>
</g>
<defs>
<clipPath id="clip0_9015_8085">
<rect width="111" height="40" fill="white"/>
</clipPath>
</defs>
</svg>
